<?xml version="1.0" encoding="utf-8"?>
<!-- Generator: Adobe Illustrator 25.4.2, SVG Export Plug-In . SVG Version: 6.00 Build 0)  -->
<svg version="1.1" id="M" xmlns="http://www.w3.org/2000/svg" xmlns:xlink="http://www.w3.org/1999/xlink" x="0px" y="0px"
	 viewBox="0 0 1800 1800" style="enable-background:new 0 0 1800 1800;" xml:space="preserve">
<style type="text/css">
	.st0{fill:#FFFFFF;}
</style>
<g>
	<circle cx="900" cy="900" r="883.4"/>
	<g>
		<path class="st0" d="M348.7,1109.2c0,6.5,1.3,10.4,5.2,10.4c1.3,0,3.9,0,6.5-2.6C565.1,856.6,670,591,795.7,591
			c15.5,0,31.1,3.9,47.9,11.7c22,18.1,31.1,38.9,31.1,64.8c0,50.5-32.4,120.5-71.3,239.7c-22,45.3-57,107.5-57,117.9l1.3,1.3
			c15.5,0,147.7-174.9,228-174.9h6.5c98.5,37.6,40.2,231.9,151.6,231.9c6.5,0,11.7,0,19.4-1.3c64.8-10.4,238.4-137.3,335.6-266.9
			c6.5-10.4,15.5-14.3,25.9-14.3c19.4,0,40.2,16.8,40.2,31.1c0,3.9-1.3,6.5-2.6,9.1c-132.1,141.2-323.9,250.1-397.7,261.7
			c-9.1,1.3-16.8,2.6-24.6,2.6c-128.3,0-121.8-193-160.7-193c-2.6,0-3.9,1.3-6.5,2.6c-90.7,47.9-191.7,228-247.5,234.5
			c-7.8,1.3-16.8,1.3-24.6,1.3c-35,0-68.7-11.7-68.7-50.5c0-7.8,1.3-15.5,3.9-24.6c0-1.3,160.7-335.6,160.7-428.8
			c0-10.4-1.3-16.8-5.2-20.7h-5.2c-90.7,0-320,536.4-456,599.9c-45.3-1.3-75.1-6.5-75.1-71.3c0-24.6,3.9-57,14.3-101.1
			C307.3,861.8,379.8,649.3,398,611.7c3.9-24.6,40.2-37.6,72.6-37.6c28.5,0,54.4,9.1,54.4,28.5c0,2.6-1.3,5.2-1.3,7.8
			C523.6,610.4,348.7,1036.7,348.7,1109.2z"/>
	</g>
</g>
</svg>
